<?xml version="1.0" encoding="utf-8"?>
<!-- Generator: Adobe Illustrator 22.0.0, SVG Export Plug-In . SVG Version: 6.00 Build 0)  -->
<svg version="1.1" id="Layer_1" xmlns="http://www.w3.org/2000/svg" xmlns:xlink="http://www.w3.org/1999/xlink" x="0px" y="0px"
	 viewBox="0 0 40 513" style="enable-background:new 0 0 40 513;" xml:space="preserve">
<style type="text/css">
	.st0{fill:none;stroke:#333333;}
	.st1{fill:none;stroke:#333333;stroke-width:1.5;}
	.st2{fill:#333333;}
</style>
<title>Designonaut-Logo</title>
<desc>Created with Sketch.</desc>
<g>
	<g>
		<path id="Stroke-1" class="st0" d="M8.2,504.8h23.5V498c0-3.5-1.8-5.9-5.2-7.3c-1.9-0.8-4.2-1.1-6.9-1.1c-3.7,0-6.5,0.6-8.4,1.7
			c-2,1.1-2.9,3.4-2.9,6.8v6.7H8.2z M2.8,491.2c0.8-2.5,2.4-4.5,4.6-6c1.8-1.2,3.7-2.1,5.8-2.5c2.1-0.5,4.1-0.7,6-0.7
			c4.8,0,8.8,0.9,12.2,2.8c4.5,2.6,6.7,6.5,6.7,11.9V512H2v-15.3C2,494.5,2.3,492.7,2.8,491.2z"/>
		<polygon id="Stroke-3" class="st0" points="8.4,440.9 8.4,460.5 16,460.5 16,442.5 22.3,442.5 22.3,460.5 31.5,460.5 31.5,440 
			38,440 38,468 2,468 2,440.9 		"/>
		<path id="Stroke-5" class="st0" d="M27.1,419.8c1.6-0.2,2.8-0.7,3.6-1.4c1.5-1.3,2.2-3.4,2.2-6.4c0-1.8-0.2-3.3-0.6-4.4
			c-0.8-2.2-2.1-3.2-4.2-3.2c-1.2,0-2.1,0.5-2.8,1.6c-0.6,1.1-1.2,2.7-1.7,5l-0.9,3.9c-0.8,3.9-1.8,6.5-2.8,7.9
			c-1.7,2.4-4.3,3.7-7.8,3.7c-3.2,0-5.9-1.2-8-3.6s-3.2-5.9-3.2-10.5c0-3.9,1-7.2,3-9.9c2-2.7,4.9-4.2,8.8-4.3v7.3
			c-2.2,0.1-3.7,1.1-4.6,2.9c-0.6,1.2-0.9,2.7-0.9,4.5c0,2,0.4,3.6,1.2,4.8c0.8,1.2,1.9,1.8,3.3,1.8c1.3,0,2.2-0.6,2.9-1.8
			c0.4-0.8,0.9-2.4,1.5-4.8l1.5-6.4c0.7-2.8,1.5-4.9,2.6-6.3c1.7-2.2,4.1-3.2,7.4-3.2s6,1.3,8.2,3.8c2.2,2.6,3.3,6.2,3.3,10.8
			c0,4.8-1.1,8.5-3.2,11.2c-2.1,2.7-5.1,4.1-8.8,4.1V419.8L27.1,419.8z"/>
		<polygon id="Stroke-7" class="st0" points="2,384 38,384 38,376 2,376 		"/>
		<path id="Stroke-9" class="st0" d="M13.2,336.4c-2.5,0.6-4.2,1.9-5.2,4.1c-0.5,1.2-0.8,2.6-0.8,4.1c0,2.9,1.1,5.2,3.3,7
			s5.5,2.8,9.9,2.8s7.6-1,9.4-3s2.8-4.3,2.8-6.8s-0.7-4.5-2.2-6.1c-1.4-1.6-3.4-2.6-5.7-2.9v8.2h-6V329h19.4v4.9l-4.5,0.7
			c1.7,1.4,2.9,2.7,3.6,3.9c1.2,2,1.8,4.4,1.8,7.2c0,4.7-1.7,8.6-5,11.6c-3.3,3.1-7.9,4.7-13.7,4.7s-10.5-1.6-14.1-4.7
			c-3.5-3.2-5.3-7.3-5.3-12.6c0-4.5,1.2-8.1,3.5-10.9s5.2-4.3,8.7-4.7v7.3H13.2z"/>
		<polygon id="Stroke-10" class="st0" points="2,313 2,305.2 27.1,291 2,291 2,284 38,284 38,291.5 12.5,306 38,306 38,313 		"/>
		<path id="Stroke-11" class="st0" d="M29.4,246c-2.2-1.7-5.3-2.6-9.4-2.6c-4,0-7.1,0.9-9.3,2.6s-3.3,4.1-3.3,7s1.1,5.3,3.3,7
			s5.3,2.6,9.4,2.6c4,0,7.2-0.9,9.4-2.6s3.3-4.1,3.3-7C32.6,250.1,31.5,247.7,29.4,246z M34.8,241.4c2.8,2.7,4.2,6.6,4.2,11.6
			c0,5.1-1.4,8.9-4.2,11.6c-3.4,3.6-8.4,5.4-14.8,5.4c-6.6,0-11.5-1.8-14.8-5.4C2.4,261.9,1,258.1,1,253s1.4-8.9,4.2-11.6
			c3.3-3.6,8.2-5.4,14.8-5.4C26.4,236,31.4,237.8,34.8,241.4z"/>
		<polygon id="Stroke-12" class="st0" points="2,222 2,214.2 27.1,200 2,200 2,193 38,193 38,200.5 12.5,215 38,215 38,222 		"/>
		<path id="Stroke-13" class="st0" d="M24.4,166.7v-9.2L10.2,162L24.4,166.7z M2,166.2v-8.5L38,145v8.1l-7.4,2.4v13.2l7.4,2.4v7.8
			L2,166.2z"/>
		<path id="Stroke-14" class="st0" d="M2,132v-7.7h21.6c2.4,0,4.2-0.3,5.3-0.9c2-0.9,3-2.9,3-6c0-3-1-5-3-5.9
			c-1.1-0.6-2.9-0.9-5.3-0.9H2V103h21.6c3.7,0,6.6,0.6,8.7,1.8c3.8,2.2,5.7,6.5,5.7,12.7s-1.9,10.5-5.7,12.7c-2.1,1.2-5,1.8-8.7,1.8
			H2z"/>
		<polygon id="Stroke-15" class="st0" points="2,61 8.4,61 8.4,71.7 38,71.7 38,79.2 8.4,79.2 8.4,90 2,90 		"/>
	</g>
	<path id="Stroke-16" class="st1" d="M20,42V0"/>
	<path id="Fill-17" class="st2" d="M39,20.5c0,2.5-2,4.5-4.5,4.5S30,23,30,20.5s2-4.5,4.5-4.5S39,18,39,20.5"/>
</g>
</svg>
