<?xml version="1.0" encoding="UTF-8"?>
<svg width="932px" height="932px" viewBox="0 0 932 932" version="1.1" xmlns="http://www.w3.org/2000/svg" xmlns:xlink="http://www.w3.org/1999/xlink">
    <!-- Generator: Sketch 54.1 (76490) - https://sketchapp.com -->
    <title>World</title>
    <desc>Created with Sketch.</desc>
    <defs>
        <path d="M0,553.363562 C0,858.963435 247.7844,1106.71633 553.4352,1106.71633 L553.4352,1106.71633 C859.0968,1106.71633 1106.8812,858.963435 1106.8812,553.363562 L1106.8812,553.363562 C1106.8812,247.747492 859.0968,0 553.4352,0 L553.4352,0 C247.7844,0 0,247.747492 0,553.363562" id="path-1"></path>
        <path d="M0,553.363562 C0,858.963435 247.7844,1106.71633 553.4352,1106.71633 L553.4352,1106.71633 C859.0968,1106.71633 1106.8812,858.963435 1106.8812,553.363562 L1106.8812,553.363562 C1106.8812,247.747492 859.0968,0 553.4352,0 L553.4352,0 C247.7844,0 0,247.747492 0,553.363562" id="path-3"></path>
        <path d="M0,553.363562 C0,858.963435 247.7844,1106.71633 553.4352,1106.71633 L553.4352,1106.71633 C859.0968,1106.71633 1106.8812,858.963435 1106.8812,553.363562 L1106.8812,553.363562 C1106.8812,247.747492 859.0968,0 553.4352,0 L553.4352,0 C247.7844,0 0,247.747492 0,553.363562 L0,553.363562 Z" id="path-5"></path>
        <path d="M0,553.363562 C0,858.963435 247.7844,1106.71633 553.4352,1106.71633 L553.4352,1106.71633 C859.0968,1106.71633 1106.8812,858.963435 1106.8812,553.363562 L1106.8812,553.363562 C1106.8812,247.747492 859.0968,0 553.4352,0 L553.4352,0 C247.7844,0 0,247.747492 0,553.363562 L0,553.363562 Z" id="path-7"></path>
        <path d="M0,553.363562 C0,858.963435 247.7844,1106.71633 553.4352,1106.71633 L553.4352,1106.71633 C859.0968,1106.71633 1106.8812,858.963435 1106.8812,553.363562 L1106.8812,553.363562 C1106.8812,247.747492 859.0968,0 553.4352,0 L553.4352,0 C247.7844,0 0,247.747492 0,553.363562" id="path-9"></path>
        <path d="M0,553.363562 C0,858.963435 247.7844,1106.71633 553.4352,1106.71633 L553.4352,1106.71633 C859.0968,1106.71633 1106.8812,858.963435 1106.8812,553.363562 L1106.8812,553.363562 C1106.8812,247.747492 859.0968,0 553.4352,0 L553.4352,0 C247.7844,0 0,247.747492 0,553.363562 L0,553.363562 Z" id="path-11"></path>
        <path d="M0,553.363562 C0,858.963435 247.7844,1106.71633 553.4352,1106.71633 L553.4352,1106.71633 C859.0968,1106.71633 1106.8812,858.963435 1106.8812,553.363562 L1106.8812,553.363562 C1106.8812,247.747492 859.0968,0 553.4352,0 L553.4352,0 C247.7844,0 0,247.747492 0,553.363562" id="path-13"></path>
        <path d="M0,553.363562 C0,858.963435 247.7844,1106.71633 553.4352,1106.71633 L553.4352,1106.71633 C859.0968,1106.71633 1106.8812,858.963435 1106.8812,553.363562 L1106.8812,553.363562 C1106.8812,247.747492 859.0968,0 553.4352,0 L553.4352,0 C247.7844,0 0,247.747492 0,553.363562" id="path-15"></path>
        <path d="M0,553.363562 C0,858.963435 247.7844,1106.71633 553.4352,1106.71633 L553.4352,1106.71633 C859.0968,1106.71633 1106.8812,858.963435 1106.8812,553.363562 L1106.8812,553.363562 C1106.8812,247.747492 859.0968,0 553.4352,0 L553.4352,0 C247.7844,0 0,247.747492 0,553.363562" id="path-17"></path>
        <path d="M0,553.363562 C0,858.963435 247.7844,1106.71633 553.4352,1106.71633 L553.4352,1106.71633 C859.0968,1106.71633 1106.8812,858.963435 1106.8812,553.363562 L1106.8812,553.363562 C1106.8812,247.747492 859.0968,0 553.4352,0 L553.4352,0 C247.7844,0 0,247.747492 0,553.363562 L0,553.363562 Z" id="path-19"></path>
        <path d="M0,553.363562 C0,858.963435 247.7844,1106.71633 553.4352,1106.71633 L553.4352,1106.71633 C859.0968,1106.71633 1106.8812,858.963435 1106.8812,553.363562 L1106.8812,553.363562 C1106.8812,247.747492 859.0968,0 553.4352,0 L553.4352,0 C247.7844,0 0,247.747492 0,553.363562" id="path-21"></path>
        <path d="M0,553.363562 C0,858.963435 247.7844,1106.71633 553.4352,1106.71633 L553.4352,1106.71633 C859.0968,1106.71633 1106.8812,858.963435 1106.8812,553.363562 L1106.8812,553.363562 C1106.8812,247.747492 859.0968,0 553.4352,0 L553.4352,0 C247.7844,0 0,247.747492 0,553.363562" id="path-23"></path>
        <path d="M0,553.363562 C0,858.963435 247.7844,1106.71633 553.4352,1106.71633 L553.4352,1106.71633 C859.0968,1106.71633 1106.8812,858.963435 1106.8812,553.363562 L1106.8812,553.363562 C1106.8812,247.747492 859.0968,0 553.4352,0 L553.4352,0 C247.7844,0 0,247.747492 0,553.363562" id="path-25"></path>
        <path d="M0,553.363562 C0,858.963435 247.7844,1106.71633 553.4352,1106.71633 L553.4352,1106.71633 C859.0968,1106.71633 1106.8812,858.963435 1106.8812,553.363562 L1106.8812,553.363562 C1106.8812,247.747492 859.0968,0 553.4352,0 L553.4352,0 C247.7844,0 0,247.747492 0,553.363562" id="path-27"></path>
        <path d="M0,553.363562 C0,858.963435 247.7844,1106.71633 553.4352,1106.71633 L553.4352,1106.71633 C859.0968,1106.71633 1106.8812,858.963435 1106.8812,553.363562 L1106.8812,553.363562 C1106.8812,247.747492 859.0968,0 553.4352,0 L553.4352,0 C247.7844,0 0,247.747492 0,553.363562" id="path-29"></path>
        <path d="M0,553.363562 C0,858.963435 247.7844,1106.71633 553.4352,1106.71633 L553.4352,1106.71633 C859.0968,1106.71633 1106.8812,858.963435 1106.8812,553.363562 L1106.8812,553.363562 C1106.8812,247.747492 859.0968,0 553.4352,0 L553.4352,0 C247.7844,0 0,247.747492 0,553.363562" id="path-31"></path>
        <path d="M0,553.363562 C0,858.963435 247.7844,1106.71633 553.4352,1106.71633 L553.4352,1106.71633 C859.0968,1106.71633 1106.8812,858.963435 1106.8812,553.363562 L1106.8812,553.363562 C1106.8812,247.747492 859.0968,0 553.4352,0 L553.4352,0 C247.7844,0 0,247.747492 0,553.363562" id="path-33"></path>
        <path d="M0,553.363562 C0,858.963435 247.7844,1106.71633 553.4352,1106.71633 L553.4352,1106.71633 C859.0968,1106.71633 1106.8812,858.963435 1106.8812,553.363562 L1106.8812,553.363562 C1106.8812,247.747492 859.0968,0 553.4352,0 L553.4352,0 C247.7844,0 0,247.747492 0,553.363562" id="path-35"></path>
        <path d="M0,553.363562 C0,858.963435 247.7844,1106.71633 553.4352,1106.71633 L553.4352,1106.71633 C859.0968,1106.71633 1106.8812,858.963435 1106.8812,553.363562 L1106.8812,553.363562 C1106.8812,247.747492 859.0968,0 553.4352,0 L553.4352,0 C247.7844,0 0,247.747492 0,553.363562" id="path-37"></path>
        <path d="M0,553.363562 C0,858.963435 247.7844,1106.71633 553.4352,1106.71633 L553.4352,1106.71633 C859.0968,1106.71633 1106.8812,858.963435 1106.8812,553.363562 L1106.8812,553.363562 C1106.8812,247.747492 859.0968,0 553.4352,0 L553.4352,0 C247.7844,0 0,247.747492 0,553.363562" id="path-39"></path>
        <path d="M0,553.363562 C0,858.963435 247.7844,1106.71633 553.4352,1106.71633 L553.4352,1106.71633 C859.0968,1106.71633 1106.8812,858.963435 1106.8812,553.363562 L1106.8812,553.363562 C1106.8812,247.747492 859.0968,0 553.4352,0 L553.4352,0 C247.7844,0 0,247.747492 0,553.363562" id="path-41"></path>
        <path d="M0,553.363562 C0,858.963435 247.7844,1106.71633 553.4352,1106.71633 L553.4352,1106.71633 C859.0968,1106.71633 1106.8812,858.963435 1106.8812,553.363562 L1106.8812,553.363562 C1106.8812,247.747492 859.0968,0 553.4352,0 L553.4352,0 C247.7844,0 0,247.747492 0,553.363562" id="path-43"></path>
        <path d="M0,553.363562 C0,858.963435 247.7844,1106.71633 553.4352,1106.71633 L553.4352,1106.71633 C859.0968,1106.71633 1106.8812,858.963435 1106.8812,553.363562 L1106.8812,553.363562 C1106.8812,247.747492 859.0968,0 553.4352,0 L553.4352,0 C247.7844,0 0,247.747492 0,553.363562" id="path-45"></path>
        <path d="M0,553.363562 C0,858.963435 247.7844,1106.71633 553.4352,1106.71633 L553.4352,1106.71633 C859.0968,1106.71633 1106.8812,858.963435 1106.8812,553.363562 L1106.8812,553.363562 C1106.8812,247.747492 859.0968,0 553.4352,0 L553.4352,0 C247.7844,0 0,247.747492 0,553.363562" id="path-47"></path>
        <path d="M0,553.363562 C0,858.963435 247.7844,1106.71633 553.4352,1106.71633 L553.4352,1106.71633 C859.0968,1106.71633 1106.8812,858.963435 1106.8812,553.363562 L1106.8812,553.363562 C1106.8812,247.747492 859.0968,0 553.4352,0 L553.4352,0 C247.7844,0 0,247.747492 0,553.363562" id="path-49"></path>
        <path d="M0,553.363562 C0,858.963435 247.7844,1106.71633 553.4352,1106.71633 L553.4352,1106.71633 C859.0968,1106.71633 1106.8812,858.963435 1106.8812,553.363562 L1106.8812,553.363562 C1106.8812,247.747492 859.0968,0 553.4352,0 L553.4352,0 C247.7844,0 0,247.747492 0,553.363562" id="path-51"></path>
        <path d="M0,553.363562 C0,858.963435 247.7844,1106.71633 553.4352,1106.71633 L553.4352,1106.71633 C859.0968,1106.71633 1106.8812,858.963435 1106.8812,553.363562 L1106.8812,553.363562 C1106.8812,247.747492 859.0968,0 553.4352,0 L553.4352,0 C247.7844,0 0,247.747492 0,553.363562" id="path-53"></path>
        <path d="M0,553.363562 C0,858.963435 247.7844,1106.71633 553.4352,1106.71633 L553.4352,1106.71633 C859.0968,1106.71633 1106.8812,858.963435 1106.8812,553.363562 L1106.8812,553.363562 C1106.8812,247.747492 859.0968,0 553.4352,0 L553.4352,0 C247.7844,0 0,247.747492 0,553.363562" id="path-55"></path>
        <path d="M0,553.363562 C0,858.963435 247.7844,1106.71633 553.4352,1106.71633 L553.4352,1106.71633 C859.0968,1106.71633 1106.8812,858.963435 1106.8812,553.363562 L1106.8812,553.363562 C1106.8812,247.747492 859.0968,0 553.4352,0 L553.4352,0 C247.7844,0 0,247.747492 0,553.363562" id="path-57"></path>
        <path d="M0,553.363562 C0,858.963435 247.7844,1106.71633 553.4352,1106.71633 L553.4352,1106.71633 C859.0968,1106.71633 1106.8812,858.963435 1106.8812,553.363562 L1106.8812,553.363562 C1106.8812,247.747492 859.0968,0 553.4352,0 L553.4352,0 C247.7844,0 0,247.747492 0,553.363562" id="path-59"></path>
    </defs>
    <g id="Map" stroke="none" stroke-width="1" fill="none" fill-rule="evenodd">
        <g id="Desktop---map" transform="translate(-508.000000, -92.000000)">
            <g id="World" transform="translate(508.000000, 92.000000)">
                <path d="M0,553.5027 C0,859.193197 247.810994,1107 553.494599,1107 C859.189006,1107 1107,859.193197 1107,553.5027 C1107,247.806803 859.189006,0 553.494599,0 C247.810994,0 0,247.806803 0,553.5027" id="#33333---bkg" fill="#333333"></path>
                <g id="map---overlay" opacity="0.28" transform="translate(0.000000, 2.000000)">
                    <mask id="mask-2" fill="white">
                        <use xlink:href="#path-1"></use>
                    </mask>
                    <g id="Clip-4"></g>
                    <path d="M224.91324,691.460409 C220.67964,705.120374 220.43124,705.276951 209.75004,698.619743 C203.81544,694.926693 197.85924,691.179651 192.36204,686.881891 C189.40284,684.576435 186.15204,681.401708 185.20164,678.011013 C183.14424,670.678905 178.37064,666.192173 172.11744,663.314402 C163.73664,659.448578 154.81044,656.770577 146.42964,652.904753 C143.24364,651.436172 140.04684,648.569199 138.37824,645.507855 C134.79804,638.937034 130.35924,633.462249 123.60924,630.276724 C115.23924,626.329912 106.83684,622.404697 98.19684,619.127385 C79.43184,611.989648 69.26364,598.853405 68.48604,578.638817 C67.72464,558.489019 63.64764,539.176096 55.33164,520.62446 C52.47504,514.264207 52.41564,506.678337 50.79024,499.718774 C49.97484,496.236293 49.21884,492.392066 47.18844,489.616879 C44.32644,485.707861 41.25924,486.728309 40.06044,491.409412 C39.55824,493.363921 39.17484,495.345426 38.33244,497.370124 C38.53764,488.321072 34.45524,481.194134 29.15784,474.423542 C24.76764,468.80298 23.67144,462.048586 26.58204,455.726128 C32.16024,443.63193 31.52304,430.94382 32.13324,418.196319 C32.64624,407.630093 34.48764,397.080065 36.34524,386.632621 C45.59004,334.595173 71.53164,289.873636 99.33084,246.253534 C128.86884,199.917637 165.43764,159.520855 207.47664,124.102132 C208.58364,123.178869 209.70684,122.266405 210.85164,121.402534 C211.11624,121.208163 211.55364,121.245957 212.87664,120.986796 C204.91164,130.419191 216.97524,132.740845 218.08224,140.375307 C220.14504,138.383004 221.64084,137.389552 222.52104,136.007358 C226.24704,130.170828 231.69024,128.74544 237.55464,131.22907 C246.54564,135.035503 255.50424,132.57347 264.30084,131.639409 C272.10384,130.813332 275.58144,123.621603 279.92304,117.790472 C284.76684,111.273643 290.51244,105.415516 296.07444,99.4602028 C297.37584,98.0618112 299.49804,97.4247061 302.24664,97.2735286 C297.77544,105.836653 293.30964,114.399777 288.58464,123.454228 C290.71764,123.934757 292.20804,124.269507 294.06024,124.685245 C293.13144,126.283407 291.84084,127.590012 291.63564,129.042396 C291.31704,131.374848 291.71664,133.804486 291.81384,136.190931 C294.79464,136.034354 298.32084,136.806439 300.61584,135.472838 C303.02424,134.074446 304.29864,130.678352 306.00504,128.108335 C310.07664,121.958651 319.33224,116.467669 327.37284,115.997939 C327.52404,135.337858 312.63624,140.013561 298.50444,145.887886 C295.16724,139.322464 291.05244,142.664566 286.76484,145.585531 C282.89844,148.225738 279.20484,153.31178 273.54564,145.223785 C273.18384,149.165198 273.04344,151.114308 272.83284,153.058018 C271.72584,163.100522 262.21104,171.345094 252.19404,171.496271 C250.35804,171.523267 248.32224,173.353595 246.78864,174.784381 C243.41364,177.937512 240.58944,181.722348 237.02544,184.610917 C228.58524,191.451698 219.52404,197.563588 211.41324,204.755316 C209.08584,206.81241 208.84284,211.515109 208.21104,215.100175 C207.62244,218.469273 208.58364,222.259509 207.43344,225.331651 C205.43544,230.693052 207.11484,233.425045 210.47904,238.057555 C215.42544,244.876739 222.37524,246.917635 228.21804,251.258589 C236.11284,257.127514 241.43724,254.962437 248.11164,251.641931 C248.82984,251.280185 249.65064,251.123609 250.43904,250.907641 C250.60104,250.864447 250.80624,250.994028 251.84844,251.269387 C249.60744,257.386676 247.36644,263.428376 245.17944,269.502471 C241.97184,278.421942 244.51524,286.158989 250.57944,292.837794 C255.39084,298.139804 259.48944,297.524296 262.20564,290.942677 C265.17564,283.74015 267.99984,276.397244 269.92224,268.865366 C272.08224,260.367032 276.46164,253.904194 283.77864,249.277084 C285.86844,247.954281 288.01224,246.701667 289.97784,245.211489 C297.44604,239.553132 299.26044,233.414247 294.69204,225.326252 C291.31164,219.327745 291.57624,215.445724 296.88444,210.456867 C300.67524,206.893398 302.67864,201.127057 304.67664,196.024817 C307.10664,189.804944 308.71044,186.063301 317.75544,186.921773 C328.80924,187.974616 338.59944,190.571629 348.07104,195.80345 C355.42584,199.869044 356.03064,202.8494 350.32284,209.058475 C347.44464,212.17921 344.46384,215.20276 341.43984,218.361289 C361.16604,232.18863 373.18644,218.447677 386.09784,207.265942 C392.84244,213.717981 396.76824,221.455029 397.48644,230.601266 C397.65384,232.766343 396.69264,235.67651 395.18064,237.188285 C391.72464,240.665367 393.02064,243.591731 396.17424,245.216889 C401.90364,248.175648 408.05424,250.37852 414.11844,252.651581 C417.19644,253.807009 420.47964,254.433316 423.48744,255.248594 C419.19984,258.477313 415.38204,261.014935 412.01244,264.049283 C410.72184,265.215509 410.44104,267.504768 409.70124,269.286503 C411.79644,269.448479 414.16164,270.317749 415.95444,269.653648 C422.47224,267.234808 428.73084,266.846066 435.07584,270.053189 C442.58184,273.848823 442.99224,278.529926 435.90204,283.221827 C433.19664,285.01436 430.04844,286.158989 427.04604,287.460195 C420.81984,290.154394 414.29124,292.276278 408.36744,295.504997 C396.89784,301.741068 384.45624,304.197702 371.80404,306.028029 C369.45504,306.362779 366.82524,306.02263 364.52484,305.320735 C355.72824,302.648133 347.47704,303.598391 339.59304,308.322687 C334.30644,311.492015 328.80384,314.337391 323.64684,317.711889 C319.82364,320.217115 317.27484,323.791383 317.21004,328.477885 C318.04704,329.222974 318.88944,329.973462 319.73724,330.72395 C321.37344,328.159332 322.82604,325.443537 324.69984,323.067891 C329.82444,316.551062 336.95244,313.516714 344.90124,312.274899 C351.98604,311.162664 355.45824,313.33854 357.14844,320.265708 C358.22304,324.639057 358.73604,329.174381 359.11404,333.666512 C359.43264,337.489142 361.19844,339.621825 364.94604,339.157494 C368.96904,338.649969 372.91104,337.516138 376.88544,336.609073 C381.07044,335.653416 385.20684,334.174036 389.43504,333.850084 C391.43844,333.698907 394.68384,335.248476 395.39124,336.879033 C396.07164,338.466397 394.88364,342.294426 393.37704,343.152899 C385.55784,347.607235 377.43624,351.570245 369.24984,355.322686 C368.06724,355.868004 365.79384,354.653185 364.29804,353.783915 C358.32024,350.32843 352.72584,351.348878 348.70824,357.055827 C346.34844,360.414127 344.27484,363.961399 341.69904,367.999997 C340.68384,366.077883 340.06824,364.495919 339.11244,363.167717 C334.49544,356.764271 328.09104,356.683283 323.77104,363.065132 C320.42844,367.989199 315.94644,370.953357 310.08744,371.563466 C305.16804,372.07639 302.35464,374.500628 300.89664,379.25732 C298.09944,388.430553 296.59824,389.218836 287.12664,388.236182 C284.10804,387.91763 281.06244,387.863638 276.81804,387.620674 C280.97604,395.476504 275.81364,396.955883 270.87804,399.768864 C266.90904,402.020329 264.23604,406.534056 261.33624,409.670989 C258.88464,409.012287 255.55284,406.938996 253.13364,407.711081 C248.30064,409.244452 245.56284,413.687991 245.95164,418.844222 C246.41604,424.96691 247.59324,431.062602 248.79744,437.104302 C250.70904,446.720269 248.76504,448.944738 241.56144,455.418374 C229.37364,466.378741 217.86624,478.192181 206.92584,490.410561 C201.02364,496.997579 202.17384,505.441921 205.85124,513.17357 C209.47464,520.791835 213.75684,528.123942 216.93204,535.909582 C218.22264,539.057314 217.34784,543.090513 217.45044,546.713373 C214.14564,545.147606 209.96604,544.370122 207.69804,541.864895 C200.26224,533.658118 195.33204,523.97736 193.60404,512.838819 C193.16664,510.020439 192.25944,507.245253 191.30904,504.545655 C189.89424,500.523254 187.04304,498.53635 182.69064,499.47581 C176.91804,500.728424 171.86904,499.502806 166.89024,496.241692 C159.85944,491.62538 154.64844,492.877993 149.25924,499.697177 C144.16164,506.160014 142.16904,507.094075 135.41364,502.531755 C127.50264,497.19735 121.20624,499.465012 114.68844,504.524058 C99.13644,516.585861 93.22344,538.538991 99.24984,557.311994 C102.55464,567.597462 103.81284,578.536232 105.94584,589.188845 C106.46964,591.802056 106.50204,594.544847 107.29584,597.066272 C110.73564,608.032038 120.21804,612.194818 130.06224,606.320493 C134.83584,603.475117 138.62664,598.853405 142.57404,594.755416 C145.97604,591.213543 148.57344,586.823997 152.24004,583.627674 C157.08924,579.400103 161.59284,580.987467 163.50984,587.164147 C165.88584,594.858001 163.99044,602.17931 161.19864,609.435829 C159.13584,614.791831 157.01364,620.196426 155.75004,625.768396 C154.34064,632.015265 156.39804,633.32187 162.58104,632.420205 C167.16024,631.756104 171.99864,631.691313 176.56704,632.404007 C186.63264,633.958975 191.66544,639.746913 192.46464,649.918998 C193.04784,657.310497 193.25844,664.728991 193.81464,672.12049 C194.77584,684.819398 199.06344,688.037319 211.44024,687.15725 C216.64584,686.790105 222.03504,687.988726 227.24064,688.982178 C231.86844,689.862247 236.33424,691.573792 240.92964,692.680627 C245.72484,693.830656 249.25104,692.108313 250.10424,687.070863 C251.33004,679.857538 255.82824,677.206533 262.50264,675.333012 C267.80004,673.842834 272.51964,670.068796 277.27164,666.958859 C279.76104,665.328302 281.75904,662.941858 285.40944,659.578159 C284.85864,667.201823 284.40504,672.973563 284.03784,678.756102 C283.91364,680.802397 283.37904,683.167245 284.17284,684.835596 C285.02064,686.628129 287.21844,687.778158 288.82764,689.208945 C290.06964,687.751162 291.94884,686.471552 292.42404,684.797802 C293.25564,681.871438 292.82364,678.56713 293.70384,675.667762 C294.30324,673.707854 295.91784,671.418595 297.68364,670.641111 C299.22804,669.955413 302.19264,670.500732 303.53724,671.656159 C313.80264,680.489244 325.83924,681.315321 338.29704,679.404005 C343.72944,678.56713 348.89184,676.115895 354.24864,674.67431 C358.13664,673.621467 361.41444,673.886027 363.06144,678.772299 C363.54204,680.203086 366.73884,681.536688 368.65584,681.498893 C373.16484,681.407107 374.26644,683.415608 375.40584,687.492 C376.70724,692.140708 379.02924,697.221351 382.47984,700.428473 C391.68144,708.980799 403.59384,711.513022 415.67904,713.953458 C430.14024,716.874423 444.33144,721.19378 458.55504,725.194584 C460.72584,725.804693 463.00464,727.581028 464.30604,729.459948 C468.12384,734.956329 471.34764,740.863049 475.05744,746.445818 C477.47124,750.063279 477.33084,752.935651 473.59944,755.322095 C468.91764,758.31325 464.17644,761.218017 459.47304,764.171377 C454.32684,767.389298 453.16044,771.865231 455.61204,778.641221 C459.74844,776.36816 463.58784,774.294869 467.38944,772.145989 C469.36044,771.039154 471.17484,769.597569 473.21604,768.685105 C476.27244,767.319108 479.46924,766.287862 482.60124,765.121635 C483.00624,768.253169 483.43284,771.379303 483.79464,774.516236 C483.97284,776.060406 484.02144,777.615374 484.22124,780.471549 C486.75384,778.706012 488.22804,777.37781 489.93984,776.540934 C493.96824,774.564829 497.94804,772.065001 502.23564,771.141739 C512.70084,768.879476 517.10184,772.232376 519.38064,782.987574 C519.54804,783.765058 519.96384,784.483151 520.36344,785.476603 C540.14364,773.911526 557.25624,786.30268 575.11404,791.313133 C577.43604,791.961037 578.99664,794.957591 581.23764,796.355982 C585.32004,798.899003 589.40784,801.884759 593.92764,803.207562 C602.31924,805.664196 605.35404,809.422036 601.90344,817.537027 C599.13324,824.032259 594.91584,830.009169 590.70384,835.753913 C587.69064,839.862701 583.64064,843.221 580.02264,846.887054 C577.83024,849.095325 576.34524,851.670742 571.94964,849.910604 C568.21824,848.415027 567.61344,852.307847 567.44604,855.363792 C566.94384,864.402045 566.86824,873.505089 565.69104,882.456955 C564.84864,888.914393 562.96404,895.339436 560.73384,901.483721 C556.33284,913.615713 547.29864,919.738401 534.37644,920.21353 C523.37664,920.613071 513.40824,923.274874 505.38924,931.730015 C501.96564,935.352875 501.36084,938.403421 503.26164,942.70118 C509.34204,956.46373 509.01264,959.039146 497.92644,969.670163 C492.19704,975.161145 489.40524,981.343224 489.00024,989.226049 C488.31444,1002.41089 484.53984,1004.85672 471.57984,1001.6172 C467.10864,1000.49957 462.58344,999.576307 458.08524,998.572057 C457.67484,999.15517 457.25364,999.749082 456.84324,1000.33759 C458.72244,1003.31795 460.47744,1006.37929 462.50244,1009.25707 C468.25884,1017.44764 466.28784,1022.20434 456.62724,1023.40836 C453.30084,1023.82949 449.53704,1023.40836 448.37064,1028.15965 C447.23664,1032.75976 446.19444,1036.93874 450.93564,1040.30784 C454.37544,1042.74828 455.69844,1045.23191 450.83304,1048.13667 C446.54544,1050.69049 446.64264,1055.06924 451.21644,1057.13173 C457.24284,1059.84213 461.06604,1063.77814 463.74984,1069.86304 C465.06744,1072.87039 468.87444,1075.04086 471.94704,1076.96298 C479.90664,1081.94104 488.07684,1086.57895 496.16604,1091.34104 C495.98784,1091.90255 495.80964,1092.46407 495.63144,1093.01479 C492.32664,1093.01479 488.95164,1093.45752 485.74404,1092.9338 C475.38144,1091.23845 466.01784,1087.04328 458.05824,1080.1593 C445.58424,1069.39331 433.20744,1058.51393 420.93864,1047.52116 C412.06104,1039.56815 408.12444,1029.02352 406.47204,1017.55563 C403.76124,998.728634 397.36224,981.310828 387.17244,965.25902 C379.26144,952.803075 373.32144,939.54805 370.90224,924.878436 C368.34264,909.361147 359.35704,899.728982 344.63664,894.302791 C333.31284,890.129212 322.28604,884.994577 311.55084,879.4712 C304.47144,875.832142 300.53484,869.60687 299.82204,861.059943 C299.55204,857.804228 296.35524,854.186767 293.56344,851.838117 C280.48464,840.845354 266.53104,830.824447 254.02464,819.232374 C247.92264,813.574017 244.00224,805.410433 239.68764,798.040531 C237.77604,794.779417 240.15204,792.387573 243.51624,791.005379 C252.18864,787.447309 252.86904,785.071663 246.97224,777.550584 C241.50744,770.59642 240.36264,763.156328 243.27864,754.933353 C245.27124,749.307391 247.30164,743.697627 249.15384,738.028472 C252.59364,727.494641 251.32464,717.732895 244.07244,709.029392 C241.44264,705.865463 239.21784,702.274998 236.22084,699.516009 C233.04024,696.589645 229.16304,694.429967 224.91324,691.460409" id="Fill-3" fill="#FFFFFF" mask="url(#mask-2)"></path>
                    <mask id="mask-4" fill="white">
                        <use xlink:href="#path-3"></use>
                    </mask>
                    <g id="Clip-7"></g>
                    <path d="M943.67214,726.475813 C936.93834,725.82251 931.06854,725.250195 925.26354,724.688679 C924.97734,724.283739 924.58314,723.970586 924.56694,723.646634 C924.01074,713.350368 921.91014,710.764153 911.73114,712.907634 C902.84274,714.775756 893.99214,718.220443 886.00014,722.577593 C875.09214,728.538305 864.81054,730.978742 853.31934,724.580695 C850.87854,723.225497 847.29834,723.247094 844.35534,723.603441 C835.07814,724.715675 826.57314,722.998731 819.47754,716.886841 C810.02214,708.739455 800.92314,700.176331 791.67294,691.79138 C791.06274,691.246061 790.50114,690.630553 789.83694,690.155424 C765.87174,673.034574 761.22234,647.836528 761.41134,620.90534 C761.44374,616.715564 764.14914,612.385409 766.18494,608.411601 C768.32874,604.211027 771.22854,600.404594 773.65854,596.339 C777.03894,590.691441 777.71934,584.736128 774.98694,578.624239 C770.90994,569.521195 771.71454,560.56393 775.76454,551.741644 C784.12374,533.50856 798.05034,519.767607 812.77074,506.798739 C815.72994,504.190928 819.88794,502.533375 823.77594,501.475132 C830.69874,499.585414 834.06294,495.120279 835.16994,488.441474 C835.67214,485.396328 835.63434,482.16221 836.68734,479.333031 C838.43694,474.608735 839.90034,469.225737 843.19974,465.737856 C853.53534,454.826082 865.53954,446.635502 881.22114,444.616203 C896.26554,442.677892 910.89954,438.39093 926.43534,439.001039 C932.36994,439.233205 938.46654,434.681683 944.53614,432.441017 C949.26654,430.697077 953.96994,428.283636 958.86234,427.743717 C964.47294,427.128208 966.57354,430.80506 964.73214,436.188059 C964.26774,437.543257 963.50634,438.79587 962.95554,440.129471 C957.89574,452.466633 962.80434,463.340613 975.45114,467.735559 C977.77854,468.545438 980.46774,468.691216 982.48194,469.954628 C986.90454,472.740613 991.22994,475.78036 995.17734,479.198051 C1001.53854,484.71063 1007.20854,491.060084 1013.83434,496.200118 C1019.61234,500.676051 1027.03734,497.949458 1029.11094,490.88191 C1030.54734,486.006437 1030.77414,480.763818 1031.45454,475.677776 C1032.26454,469.560487 1034.55414,467.897535 1039.39254,471.682371 C1044.89514,475.990929 1049.36094,481.697879 1053.96174,487.080877 C1055.48454,488.862611 1056.00834,491.502818 1057.30434,494.488573 C1061.54874,493.052387 1065.67974,491.551411 1069.87554,490.266402 C1073.36394,489.197361 1077.16014,488.846414 1080.39474,487.302244 C1083.44034,485.84986 1088.17074,483.387827 1088.31114,481.125564 C1089.18054,467.26043 1089.13194,453.330505 1088.93754,439.427576 C1088.91054,437.143716 1086.67494,434.886852 1084.91994,431.604141 C1082.83554,434.892252 1081.38294,437.176111 1079.43894,440.232056 C1073.70414,434.762671 1067.13774,435.30799 1060.27974,436.479615 C1058.89194,436.71718 1056.19734,434.714078 1055.59794,433.164509 C1053.01134,426.491103 1051.11054,419.563935 1048.70214,412.82034 C1046.97954,407.993459 1048.31334,404.300409 1052.30394,401.519823 C1054.48554,400.002649 1056.82374,398.399088 1059.33474,397.729588 C1064.62134,396.314999 1067.46174,394.446877 1065.57174,387.978641 C1064.09214,382.897997 1067.05674,380.776114 1072.30014,382.260892 C1075.25394,383.097768 1077.99714,384.733724 1080.97794,385.419422 C1083.43494,385.986337 1087.40934,386.720628 1088.35434,385.527406 C1089.75294,383.75107 1089.86094,380.074218 1089.08334,377.671576 C1087.82514,373.843546 1085.62734,370.247682 1083.40794,366.829991 C1078.60194,359.422295 1073.46654,352.225167 1068.59574,344.855265 C1065.71214,340.492715 1062.38034,337.242399 1055.66274,338.419424 C1056.80754,341.270199 1058.41674,343.737631 1058.64354,346.323846 C1058.83254,348.461928 1058.01174,351.966006 1056.53754,352.716494 C1053.14634,354.455035 1052.03934,351.458481 1051.55874,348.569912 C1051.18614,346.334645 1051.48314,343.581055 1050.25194,341.99909 C1048.60494,339.871807 1045.84554,337.442169 1043.44254,337.30179 C1039.46814,337.080423 1039.67874,340.633094 1040.17014,343.694438 C1042.06554,355.475483 1044.15534,367.234931 1045.69434,379.064569 C1047.06054,389.587601 1043.14554,394.414482 1032.77754,396.261007 C1030.96314,396.579559 1029.08934,396.84412 1027.37754,397.492023 C1022.49054,399.338548 1021.03254,403.209772 1024.47774,407.145785 C1028.22534,411.438146 1033.02054,414.796445 1037.09214,418.835044 C1038.95514,420.676169 1040.16474,423.165199 1041.67134,425.362671 C1038.76614,425.934986 1035.46674,427.619535 1033.06914,426.766462 C1030.41234,425.827002 1027.97694,422.895239 1026.50814,420.244234 C1018.73214,406.227922 1011.89034,391.644694 1003.44474,378.060318 C999.96714,372.455953 993.72474,368.168992 987.95754,364.492139 C980.73234,359.892025 972.65934,356.641709 965.05614,352.60851 C958.90014,349.341996 955.58994,350.675598 955.24434,357.71075 C955.05534,361.371404 956.15154,365.436999 957.78234,368.762903 C959.85054,372.958078 963.06894,376.586338 966.88134,382.017929 C964.25694,380.403569 962.91234,379.852851 961.92954,378.924189 C957.86874,375.128555 953.98074,371.143949 949.90914,367.364512 C942.16554,360.156585 942.28974,360.572323 932.62374,364.794494 C929.44314,366.182088 924.90174,365.955322 921.45114,364.907878 C911.74194,361.976114 905.98554,365.447797 905.74254,375.382317 C905.59674,380.873299 903.37734,385.025281 899.44074,388.901903 C896.83794,391.461122 894.34854,395.170369 893.84634,398.65285 C892.15614,410.4015 886.19994,420.578984 878.92074,428.612987 C873.61794,434.465715 863.48754,436.04228 855.36054,439.114423 C854.38314,439.486967 852.07194,437.613446 851.01354,436.285244 C847.41714,431.771516 842.96754,429.417467 837.16254,429.482258 C831.49794,429.541649 827.30754,426.453309 825.94674,421.394262 C822.37194,408.144636 819.15354,394.76543 816.59394,381.289037 C815.45994,375.36612 819.66654,371.19794 825.32034,370.46365 C836.09874,369.081456 846.97974,368.131197 857.83374,367.818044 C873.19674,367.37531 876.63654,362.229877 870.24834,348.11098 C867.22974,341.432175 862.52634,337.269395 855.04194,336.070774 C850.75434,335.385076 846.61794,333.716724 842.41674,332.491107 C842.38974,331.859401 842.36274,331.222296 842.33574,330.59059 C844.78734,329.354174 847.15254,327.896391 849.70134,326.924536 C864.22194,321.368764 873.50454,311.196679 877.44654,296.116726 C878.48874,292.142918 880.05474,288.309489 881.11314,284.335681 C883.25694,276.328674 887.57154,271.334418 896.28174,269.358312 C905.59134,267.241827 906.71454,259.666756 899.69454,251.913511 C893.70054,245.288698 892.96614,241.012535 896.64354,233.345677 C897.04314,232.503403 897.91794,231.887894 900.25614,229.328676 C901.88694,236.714775 903.97674,242.459519 904.24674,248.290651 C904.63554,256.594614 905.64534,263.932121 914.35554,267.646767 C924.35094,271.906732 934.02774,273.126951 943.58574,266.167388 C947.50614,263.316612 952.10154,261.356704 956.48094,259.180828 C959.41314,257.728445 962.60454,256.788985 965.51514,255.298807 C968.99814,253.522471 969.51654,250.963253 966.96234,247.793925 C963.37134,243.334189 959.90454,238.76647 956.38374,234.247343 C956.70774,233.858601 957.03174,233.464459 957.35574,233.075717 C958.95414,234.052972 960.44454,235.499956 962.17794,235.872501 C964.05714,236.27744 967.15674,236.396223 967.92354,235.33798 C968.93334,233.950387 968.26374,231.277785 968.13414,229.172099 C968.10174,228.702369 967.35654,228.265034 966.91374,227.838498 C959.79114,220.900531 959.79114,220.900531 966.32514,213.185081 C968.79294,210.269515 971.24994,207.343151 973.71234,204.427585 C973.45854,203.833674 973.19934,203.239762 972.94014,202.65125 C970.51014,202.878016 968.02614,202.845621 965.66094,203.380141 C956.08134,205.53442 946.84734,208.946712 937.68354,200.993697 C926.75934,191.518108 919.22094,180.752112 918.10854,165.952917 C917.75754,161.30421 916.87194,156.520522 915.20874,152.201166 C913.21614,147.039535 906.71994,145.268598 902.28114,148.308346 C900.91494,149.242406 899.74314,151.520867 899.74314,153.183819 C899.74314,161.136835 901.06614,169.187035 900.25614,177.026667 C898.98174,189.326035 903.50694,197.543611 914.17194,203.347746 C928.85454,211.338556 935.17794,224.021266 933.10434,240.256648 C932.13234,247.831719 928.40094,253.479278 920.36574,255.88192 C921.78594,253.787032 923.23314,251.702942 924.64254,249.591857 C929.11374,242.864459 928.86534,239.862506 922.16934,235.116613 C917.16894,231.569342 911.72574,228.513397 906.16374,225.916384 C897.09174,221.688814 890.10414,216.424598 891.83214,204.956706 C891.89694,204.535569 891.27594,204.001049 890.07714,202.089734 C888.75954,205.529021 887.70114,207.910066 886.92894,210.382898 C884.58534,217.855385 881.51274,219.356361 874.58454,215.760497 C870.39954,213.59002 866.34414,211.090193 862.47234,208.379796 C855.88974,203.768883 853.81074,196.722933 858.33054,190.081922 C863.89794,181.918339 866.21994,173.862739 864.03834,163.998408 C863.07174,159.641257 864.08154,154.441832 865.48554,150.046887 C868.20714,141.570149 867.77514,133.563142 864.94554,125.259179 C863.78994,121.879283 863.42814,117.921673 863.85474,114.369002 C864.60534,108.149128 870.55074,106.502374 875.89134,109.644706 C881.98794,113.235171 888.45174,116.814837 895.22874,118.510185 C910.07334,122.230231 922.29894,130.242637 934.03314,139.426669 C934.65414,139.917996 935.11854,140.646887 935.55054,141.332585 C935.73954,141.629541 935.68014,142.093871 935.77734,142.855158 C931.14954,143.368082 926.50554,143.881005 921.86694,144.393929 C921.73734,144.99324 921.60234,145.597949 921.46734,146.19726 C923.20614,147.746829 924.93414,149.296398 926.68374,150.835169 C932.94234,156.342349 939.04974,162.043899 945.55134,167.254123 C947.98134,169.203233 951.23754,170.56383 954.30474,171.071355 C955.70874,171.30352 958.20894,169.133043 959.01354,167.47549 C959.65074,166.141889 959.09454,162.994158 958.00374,162.276065 C951.76674,158.183474 951.75594,151.688242 951.45354,144.329138 C954.22914,146.024486 957.43674,147.282498 959.71014,149.490769 C1041.81174,229.377268 1095.57414,325.148201 1119.42594,437.2517 C1134.09234,506.177832 1135.81494,575.643883 1124.33994,645.309704 C1123.97814,647.523375 1123.42734,649.70465 1122.92514,652.085695 C1117.03374,652.269268 1115.68374,648.408843 1115.93214,644.078688 C1116.70434,630.748074 1117.50894,617.395863 1118.96694,604.119241 C1120.09554,593.871568 1118.92374,584.2556 1115.89434,574.364274 C1109.31714,552.945664 1103.35554,531.321886 1097.86914,509.600922 C1096.36794,503.672605 1093.32774,503.046298 1088.65674,503.548423 C1083.50514,504.099141 1081.24794,507.311663 1082.29554,512.116947 C1083.46734,517.505344 1084.64454,523.120508 1087.16094,527.93659 C1094.85594,542.660197 1098.36054,558.366457 1099.71054,574.715221 C1100.80134,587.846065 1101.74094,600.993107 1102.85874,614.118551 C1103.98194,627.422169 1102.69134,640.396436 1098.49014,653.116941 C1097.21574,656.977366 1096.67574,661.118549 1096.16274,665.173345 C1095.54714,669.994827 1097.61534,673.714873 1102.07034,675.653184 C1105.74234,677.251346 1107.40014,679.37323 1107.13014,683.67099 C1106.94114,686.564958 1107.76734,690.004246 1109.33334,692.433884 C1112.43294,697.260765 1112.49234,701.828485 1110.67254,707.006313 C1103.50134,727.36668 1097.09694,748.024003 1089.24534,768.119809 C1082.88954,784.376787 1072.27314,798.268917 1059.92874,810.530491 C1045.89414,824.476613 1034.45154,840.112684 1025.75754,857.870638 C1018.59714,872.518656 1008.34794,884.531866 995.56614,894.860527 C988.00614,900.977816 981.41814,908.720263 975.77514,916.700274 C963.25794,934.431232 948.51054,949.716355 930.48534,961.745763 C909.59274,975.686486 888.73794,989.702798 867.42954,1002.99022 C862.12674,1006.29453 855.22554,1007.37437 848.88594,1008.4866 C846.82314,1008.85375 843.25374,1006.57528 842.14134,1004.53979 C841.27734,1002.94703 842.40054,999.183786 843.90174,997.54783 C860.93334,979.071782 872.31114,957.172644 882.02034,934.388039 C894.73734,904.535886 909.68994,876.119919 929.34054,850.095796 C936.43074,840.701196 941.38254,829.573454 946.49094,818.839853 C950.77314,809.850192 950.06574,800.417797 945.82134,791.33635 C944.08254,787.605506 942.43554,783.831468 940.80474,780.05743 C934.06014,764.475352 933.97374,748.91487 940.98834,733.375985 C941.88474,731.383682 942.58134,729.304991 943.67214,726.475813" id="Fill-6" fill="#FFFFFF" mask="url(#mask-4)"></path>
                    <mask id="mask-6" fill="white">
                        <use xlink:href="#path-5"></use>
                    </mask>
                    <g id="Clip-10"></g>
                    <path d="M500.42934,18.9231009 C500.30514,18.2104071 500.18094,17.4923141 500.05674,16.7796202 C492.95034,17.9836409 485.84394,19.1930607 478.73214,20.3970813 C478.81854,20.856013 478.89954,21.3203438 478.97514,21.7792754 L500.42934,18.9231009 Z M392.80734,42.1126462 C399.80034,40.4820891 407.04174,39.0513023 414.10494,36.972612 C415.90854,36.4434908 417.12354,33.9004697 418.60854,32.2861102 C410.70834,38.3332093 397.99134,31.4492348 392.80734,42.1126462 L392.80734,42.1126462 Z M442.83834,39.952968 C439.91154,40.4280972 436.86054,40.5252827 434.08494,41.4593436 C426.83274,43.89978 419.71014,46.7073617 414.11034,48.7914513 C411.07014,51.793404 409.25034,55.0113246 406.66914,55.8374016 C402.06834,57.3167812 397.37034,63.5744489 391.77594,56.1235589 C390.62034,54.579389 384.44814,56.6850753 380.62494,57.3167812 C379.03734,57.5813418 377.51994,58.8555519 375.99174,58.8123584 C374.62554,58.774564 372.85434,57.8620999 372.08214,56.7660632 C371.43414,55.8428008 371.40174,53.5697394 372.09834,52.7922552 C374.77674,49.8065 377.86554,47.1770918 381.12714,44.0995502 C381.30534,45.6329218 381.47814,47.0907046 381.78054,49.6931169 C384.30234,47.8411928 386.24634,46.4158052 388.78974,44.5530827 C382.57434,39.9637664 386.48394,36.9672128 389.57814,34.0300503 C398.41794,25.6235027 410.05494,23.1722679 422.10774,18.5775524 C421.85934,22.1464207 421.68114,24.7650306 421.49214,27.480826 C426.46014,27.1352775 431.35794,26.7951282 436.25034,26.4549788 C436.19634,26.2066158 436.14234,25.963652 436.08294,25.715289 C432.32454,25.0457888 428.56074,24.3708893 424.80234,23.7013891 C424.75914,22.7403322 424.71594,21.7792754 424.67274,20.8182186 C434.30094,17.5085117 443.76174,13.4537157 453.64374,11.2994367 C457.11594,10.5435493 460.88514,9.97123453 464.53554,9.35032703 C468.25614,8.71862114 472.25754,9.89564579 476.15094,10.1008152 C477.68994,10.1818032 479.26134,9.79846027 480.81654,9.58789164 C490.30434,8.30828227 499.79754,7.01787451 509.76594,5.6626764 L509.76594,13.62649 L544.76334,13.62649 L544.18014,12.1525096 C545.99994,10.8459042 547.66314,8.77261309 549.67194,8.35147583 C566.88714,4.71781716 584.26434,5.67887399 601.63074,7.05026968 C605.25954,7.33642705 608.86674,7.88174581 611.76114,8.22189514 C612.02574,11.887949 612.23634,14.8467082 612.43074,17.5139109 C621.12474,16.4340717 628.78194,15.3434342 636.47154,14.6307404 C637.97274,14.4903613 639.60354,15.7969666 641.17494,16.4448701 C640.26234,17.9080521 639.67914,19.8733594 638.37234,20.7372307 C634.47354,23.3072478 632.72394,25.8664665 636.10434,30.212819 C637.10874,31.4978276 637.81614,34.0300503 637.23294,35.3582525 C634.41954,41.6969082 638.24274,43.9105784 643.02174,45.8758856 C645.28974,46.8099465 647.45514,47.9869711 649.16154,48.8076488 C649.48554,51.2102909 649.03194,53.8181024 650.10114,54.854748 C659.53494,64.0279814 659.61594,63.9469934 651.11634,73.5359649 C652.20714,74.3728402 653.40054,75.0693365 654.31854,76.0303933 C655.32294,77.0724381 656.07354,78.3520474 656.93214,79.5290721 C655.30134,80.4793305 653.68134,82.2070731 652.03434,82.2286699 C648.49194,82.2826619 644.93874,81.4619841 641.38554,80.9976533 L640.67274,82.9251662 C643.54014,84.4855337 646.48314,85.9271189 649.26414,87.638664 C653.44914,90.2194795 658.01214,92.4871417 661.44654,95.8724373 C663.55254,97.9403293 665.14014,102.059916 664.65414,104.862098 C663.89274,109.224648 660.13434,111.508508 655.26894,110.828209 C654.46974,110.714826 653.64354,110.812012 652.29354,110.812012 C654.68034,116.880708 650.76534,119.542511 646.61274,122.182718 C637.68114,127.87347 627.81534,129.018099 617.53914,128.467381 C614.88234,128.327002 612.21474,128.445785 610.61634,128.445785 C608.87754,131.09679 607.57074,133.24027 606.10194,135.270368 C603.48834,138.898627 600.22674,142.186738 598.23954,146.122751 C595.46934,151.608334 591.65154,154.696674 585.49554,155.414767 C578.76174,156.20305 572.04414,157.304485 565.39674,158.654284 C560.75814,159.604543 557.86374,161.9046 558.45234,167.692538 C558.74394,170.527116 556.69194,173.761234 555.21774,176.563416 C552.20454,182.31356 548.37594,187.669562 545.79474,193.592479 C543.05694,199.871744 539.13114,204.822806 532.59714,206.388573 C529.30854,207.176856 525.34494,205.719073 521.81334,204.790411 C518.13054,203.823955 514.67994,201.475305 510.99714,201.140555 C502.00074,200.325276 495.81234,196.108505 492.73434,187.766747 C490.33134,181.23912 488.54934,174.479327 486.41094,167.849115 C486.07614,166.796271 485.48754,165.187311 484.74234,165.009138 C477.39294,163.254399 476.68014,157.104715 475.13574,151.316777 C473.18094,143.963073 472.37634,137.187082 479.86074,132.025451 C481.45914,130.924015 481.55094,127.835676 482.93334,126.145727 C484.62354,124.077835 486.79974,122.3015 489.02994,120.800524 C492.14574,118.694837 495.50994,116.956296 498.27474,114.143315 C493.79274,113.301041 490.26654,111.540903 486.35694,116.162615 C480.10374,123.543315 473.81274,123.483924 468.97434,118.322293 C465.61014,114.726429 466.65234,111.470714 468.83394,107.756067 C471.20994,103.70667 473.89374,105.558594 476.70174,106.741018 C478.75914,107.59949 480.82734,108.452563 484.26714,108.393172 C482.40954,105.38582 479.90934,102.583638 478.89954,99.3171242 C477.95454,96.2719778 477.93294,92.578928 478.69434,89.4527937 C479.68794,85.3170098 482.30154,81.5807664 483.39774,77.4503818 C485.95194,67.8668095 479.84994,59.8058104 469.95714,59.9083951 C461.73834,59.9947822 453.53034,61.2635932 445.31694,61.3715771 C437.69754,61.4741618 434.45214,57.2789868 435.23514,49.0398143 C440.26794,48.175943 445.43574,47.2850757 451.17594,46.2970229 C447.75774,44.0563567 440.92134,47.6306242 442.77894,39.8773792 C445.13334,38.7813425 447.50394,36.8106361 449.87454,36.8106361 C458.14194,36.8214345 465.21054,34.0354495 471.36114,28.8198265 C473.14314,27.3026526 474.26094,25.0025952 475.42194,23.4206309 C464.13594,27.2702574 453.21174,30.9957024 441.96894,34.8291313 C442.09314,35.5580227 442.47114,37.7554953 442.83834,39.952968 L442.83834,39.952968 Z" id="Fill-9" fill="#FFFFFF" mask="url(#mask-6)"></path>
                    <mask id="mask-8" fill="white">
                        <use xlink:href="#path-7"></use>
                    </mask>
                    <g id="Clip-13"></g>
                    <path d="M360.6093,119.158628 C359.7453,116.901764 358.8759,114.644901 357.9039,112.118077 C342.9675,115.708542 329.3001,110.779077 315.4869,107.39918 C314.1153,107.06443 313.1595,105.012736 312.8571,104.677986 C315.0387,101.184706 316.2051,98.3231322 318.2139,96.2822363 C322.0911,92.357021 326.0979,88.3670155 330.6879,85.3758611 C336.3363,81.6882104 342.6111,78.9400198 348.6699,75.9002727 C349.9119,75.2793652 351.4671,74.6962521 352.7415,74.9068207 C354.3021,75.1713813 355.7169,76.2890148 357.1965,77.039503 C356.1435,78.0977453 355.2093,79.3179635 354.0159,80.1818348 C349.3017,83.5941265 344.4903,86.8714383 339.7707,90.2783307 C339.2631,90.6508752 339.1389,91.5579401 339.2847,92.7619607 C347.5845,84.5605825 357.7635,80.3924035 367.9749,76.2998132 L369.4491,78.1625357 C367.2945,81.180686 365.1453,84.1934372 362.4723,87.9458782 C365.4693,87.6597208 367.7697,87.4383538 370.0161,87.222386 C370.8423,79.3233627 380.5245,74.1185381 387.1449,77.8547815 C388.0143,78.3407091 388.9323,79.9010767 388.7811,80.7811456 C388.5759,81.9851662 387.5823,83.5617313 386.5293,83.993667 C384.5421,84.8089455 382.2687,84.9115302 379.9521,85.3380667 C383.4459,89.2524835 386.7453,92.9455334 390.2121,96.827555 C395.2827,94.1873484 396.9351,94.8784454 399.5865,101.578847 C399.7755,102.048577 399.9753,102.63709 400.3533,102.885453 C404.0415,105.293494 407.8701,107.485567 411.4449,110.044786 C414.2745,112.064085 411.8769,120.524625 408.1887,121.734045 C406.2609,122.360351 404.2197,122.630311 401.6763,123.17563 C404.4465,127.4032 407.1087,129.55208 412.3467,128.925773 C414.7119,128.639616 417.5631,131.711758 420.0471,133.461098 C422.9685,135.512792 425.8629,137.650873 428.5089,140.031919 C429.7293,141.133355 431.2305,143.082464 430.9821,144.329678 C430.7229,145.674078 428.6331,146.726921 427.2345,147.779764 C422.3961,151.408024 417.0447,154.501763 412.8165,158.734732 C410.0463,161.50452 408.3507,162.23881 406.1043,159.128874 C404.2251,156.53726 402.9345,153.535307 401.2281,150.808713 C400.2939,149.307737 399.2895,147.304635 397.8693,146.824107 C396.7029,146.419167 394.2459,147.504405 393.4953,148.659833 C392.3127,150.473963 391.4541,152.97919 391.6809,155.05788 C391.8321,156.499465 393.8085,158.248805 395.3745,158.934503 C399.0141,160.538064 398.5335,163.691194 399.8187,166.40159 C404.2089,175.699005 394.1595,177.135191 393.5223,183.99217 C387.8901,180.450297 383.2947,177.561728 378.7047,174.673158 C378.3969,174.953916 378.0945,175.234674 377.7975,175.515432 C379.5957,178.004462 381.7665,180.309918 383.0571,183.036512 C383.9103,184.845243 383.4999,187.247885 383.6565,189.385966 C381.7125,189.402164 379.6173,189.89889 377.8569,189.337373 C373.1751,187.841796 368.7363,185.552537 364.0113,184.25673 C361.3491,183.52244 358.3143,184.12175 354.0429,184.12175 C353.3247,181.022612 352.7469,176.827437 351.3429,172.918419 C350.0307,169.257765 348.0219,165.79688 345.8727,162.546564 C345.5703,162.087633 342.7137,163.205266 341.0829,163.745186 C333.9171,166.115433 326.7459,169.214571 319.7205,163.421234 C319.2669,163.04869 318.9807,162.476375 317.7927,160.89981 C322.8903,158.437777 327.5181,155.198259 332.6211,154.015835 C337.6755,152.849609 343.2051,153.762073 348.9885,153.762073 C349.3233,144.410666 357.7149,142.50475 364.0653,138.871092 C372.4137,134.098203 372.9429,132.143694 366.2793,125.259719 C364.2921,123.208025 362.3913,121.069944 360.4527,118.969656 L360.6093,119.158628 Z" id="Fill-12" fill="#FFFFFF" mask="url(#mask-8)"></path>
                    <mask id="mask-10" fill="white">
                        <use xlink:href="#path-9"></use>
                    </mask>
                    <g id="Clip-16"></g>
                    <path d="M839.48508,303.946639 C836.83368,302.683228 834.55488,301.587191 831.96828,300.356174 C835.24608,297.958931 838.37268,295.669672 841.85568,293.115853 C837.67608,290.551235 833.90148,288.23498 829.85148,285.75135 C831.01248,283.19753 832.00068,281.021655 833.09148,278.619013 C831.54708,277.263814 830.06748,275.957209 828.23148,274.353648 C830.81808,273.570765 832.90788,272.939059 836.26128,271.92401 C833.75028,266.368238 831.44988,261.282195 829.01448,255.909996 C823.67928,257.988686 820.19628,257.788916 818.26848,251.682425 C817.48008,249.187997 813.30588,247.762609 809.63388,245.100806 C809.59068,244.582483 809.40168,242.352615 809.25048,240.570881 C807.79248,240.014764 805.79448,239.793397 805.60008,239.086102 C804.27168,234.19983 801.79848,228.806033 806.08068,224.52987 C808.07328,222.548366 811.79388,222.310801 814.97448,221.198567 C813.87828,225.620508 813.14928,228.552271 812.34468,231.786389 C814.39668,231.932168 814.62348,232.002357 814.81248,231.953765 C828.49068,228.244517 828.63108,228.363299 827.51868,242.98972 C827.41068,244.425906 827.25948,245.856693 827.17308,246.828549 C839.73888,253.59914 849.37788,262.72918 855.18828,275.725044 C855.76608,277.010052 857.59668,278.316658 859.01148,278.532625 C865.88028,279.57467 866.86308,280.757094 866.03688,287.684262 C865.80468,289.64417 865.99908,291.65807 867.21408,293.53699 C868.06728,289.860138 868.91508,286.183286 869.90868,281.880127 C876.33468,289.077254 874.08288,299.006375 863.25588,299.794658 C859.83768,300.04842 856.31688,299.562492 852.89328,299.071166 C847.53648,298.30448 842.19048,297.132854 839.48508,303.946639" id="Fill-15" fill="#FFFFFF" mask="url(#mask-10)"></path>
                    <mask id="mask-12" fill="white">
                        <use xlink:href="#path-11"></use>
                    </mask>
                    <g id="Clip-19"></g>
                    <path d="M316.1754,79.5717257 C310.3812,80.268222 305.7372,82.7302552 302.8428,88.0538621 C302.2758,89.0959069 301.32,90.229738 300.2778,90.6508752 C297.6102,91.7145168 294.1596,93.7554127 292.2102,92.853747 C290.1312,91.8980894 289.413,87.9998701 288.0576,85.2948731 C279.477,90.8020527 271.6038,97.5672448 268.1154,108.873161 C265.221,118.235366 252.2826,123.407795 242.7678,120.853976 C240.273,120.184475 237.1302,121.129335 234.4842,121.96621 C222.912,125.610667 222.4098,125.745647 217.3986,123.51038 C222.5502,119.01285 227.6532,114.558514 232.7454,110.098778 C233.037,109.834217 233.4852,109.396883 233.4312,109.132322 C231.687,100.898549 239.1984,99.5271529 243.5076,96.3632242 C253.2708,89.1930924 263.5308,82.7032592 273.7368,76.1540349 C275.8698,74.77724 278.6076,74.3453043 281.0646,73.4760338 L281.9502,75.0094054 C278.802,79.3503587 275.6484,83.6967112 272.5002,88.0376645 C272.997,88.5721849 273.4884,89.1013061 273.9798,89.6304272 C280.2168,83.6805136 286.227,77.26087 296.136,78.0869469 C295.9524,79.1397901 295.7688,80.1764357 295.3962,82.2335292 C302.8266,79.7283024 307.7676,71.6996985 316.9314,74.1617317 C316.6182,75.9812606 316.2942,77.8817775 315.9756,79.7822944 L316.1754,79.5717257 Z" id="Fill-18" fill="#FFFFFF" mask="url(#mask-12)"></path>
                    <mask id="mask-14" fill="white">
                        <use xlink:href="#path-13"></use>
                    </mask>
                    <g id="Clip-22"></g>
                    <path d="M430.41888,302.365215 C432.27648,304.805651 434.23128,307.375668 436.47228,310.31823 C439.22628,309.870097 442.64988,309.103411 446.10048,308.828052 C449.52948,308.552693 452.46708,308.320528 451.52208,314.000482 C450.94428,317.477564 453.57408,321.440573 454.55148,325.236208 C455.80968,330.149476 456.85728,335.111337 458.00748,340.089395 C449.12988,341.714553 443.83248,339.311911 441.04608,334.328453 C436.93668,335.402893 433.19448,336.374748 429.44688,337.352003 C429.19308,335.456885 428.93928,333.567167 428.45868,330.025294 C423.87948,330.025294 418.12308,330.009097 412.35588,330.030693 C409.29408,330.036093 406.14048,330.576012 403.18668,330.025294 C399.20148,329.280205 398.17548,326.602204 400.78368,323.281699 C407.38788,314.853554 413.66808,306.101458 420.96888,298.315818 C424.80828,294.212429 430.51608,291.85838 435.37608,288.710649 C436.08348,289.396347 436.79088,290.076646 437.49288,290.756944 C435.10608,294.665962 432.72468,298.580379 430.41888,302.365215" id="Fill-21" fill="#FFFFFF" mask="url(#mask-14)"></path>
                    <mask id="mask-16" fill="white">
                        <use xlink:href="#path-15"></use>
                    </mask>
                    <g id="Clip-25"></g>
                    <path d="M228.0717,596.109534 C234.4707,587.34124 233.7957,585.564905 223.3251,582.84371 C218.3517,581.553303 213.2271,580.721827 208.3941,579.031878 C204.1551,577.547099 200.2401,575.155256 194.5053,572.342275 C191.5137,574.161804 186.6753,577.098966 181.8639,580.02533 C175.7241,574.734119 176.2857,568.670822 183.7755,566.921482 C190.1961,565.415107 197.2161,565.39351 203.8365,566.073809 C211.7691,566.883688 219.5559,569.15135 227.4129,570.749512 C240.4377,573.395118 249.9201,582.314589 260.3097,589.549511 C261.6111,590.456576 261.5301,593.345146 262.0971,595.321252 C260.0073,595.86657 257.9337,596.498276 255.8223,596.946409 C252.7173,597.605111 249.5151,597.885869 246.4803,598.771338 C240.2217,600.596266 234.4275,599.942963 228.0717,596.109534" id="Fill-24" fill="#FFFFFF" mask="url(#mask-16)"></path>
                    <mask id="mask-18" fill="white">
                        <use xlink:href="#path-17"></use>
                    </mask>
                    <g id="Clip-28"></g>
                    <path d="M726.43824,157.949689 C717.83064,167.463072 708.36444,173.574962 694.88064,171.366691 C690.00444,170.573009 684.73944,172.57611 679.65804,172.532917 C671.07204,172.462727 669.13344,169.180016 671.25564,161.048828 C671.89824,158.592194 670.78044,155.59564 670.15404,152.923038 C669.72204,151.076513 668.74464,149.359569 668.01564,147.588633 C668.39364,147.043314 668.77164,146.492596 669.15504,145.947277 C672.64884,147.113504 676.49904,147.685818 679.56084,149.55394 C686.35404,153.695123 693.06624,154.969333 700.65324,152.010574 C704.04984,150.682372 707.79204,149.953481 711.44244,149.575537 C718.01424,148.88444 722.92284,151.805405 726.43824,157.949689" id="Fill-27" fill="#FFFFFF" mask="url(#mask-18)"></path>
                    <mask id="mask-20" fill="white">
                        <use xlink:href="#path-19"></use>
                    </mask>
                    <g id="Clip-31"></g>
                    <path d="M728.08902,20.9926126 C729.32022,20.9926126 730.68102,20.6416649 731.76642,21.0466046 C744.73182,25.943675 759.02562,28.4489018 768.45402,39.9707853 C770.29002,42.2222499 772.03962,46.2878442 771.18102,48.4853169 C770.41962,50.4452249 766.02402,51.8598141 763.17822,51.9677981 C754.60302,52.297149 747.26442,49.9053053 742.00482,42.0278789 C740.18502,39.3012851 735.62202,38.1242604 732.07422,36.9310382 C729.84402,36.1751508 727.16562,36.871647 724.73022,36.596288 C720.82062,36.153554 716.53302,35.7810095 716.37102,30.4250074 C716.20902,25.0204126 719.65422,22.3100163 724.40082,20.9872134 C725.54562,20.6632617 726.85242,20.9386207 728.08902,20.9386207 L728.08902,20.9926126 Z" id="Fill-30" fill="#FFFFFF" mask="url(#mask-20)"></path>
                    <mask id="mask-22" fill="white">
                        <use xlink:href="#path-21"></use>
                    </mask>
                    <g id="Clip-34"></g>
                    <path d="M788.31144,271.862999 C787.82544,268.510098 787.47984,266.118255 787.05324,263.202689 C790.12584,262.376612 793.81944,261.388559 798.08544,260.24393 C797.01624,258.586377 796.11984,257.182586 795.16944,255.697807 C795.57984,255.249674 796.04964,254.385803 796.35744,254.439795 C800.94744,255.255073 805.74804,255.584424 810.03024,257.241977 C816.82884,259.887583 816.88284,262.484596 810.71064,267.068513 C811.12104,267.872993 811.43964,268.828651 812.01744,269.584538 C819.44784,279.400276 815.71644,287.450477 802.91844,290.630603 C802.32444,290.776381 801.71424,290.91676 801.10944,291.008547 C790.48224,292.676898 789.31584,291.478277 791.02764,280.933648 C791.63244,277.2244 794.53764,272.613487 788.31144,271.862999" id="Fill-33" fill="#FFFFFF" mask="url(#mask-22)"></path>
                    <mask id="mask-24" fill="white">
                        <use xlink:href="#path-23"></use>
                    </mask>
                    <g id="Clip-37"></g>
                    <path d="M268.32924,603.280746 C268.07004,600.791717 267.49224,598.912796 267.81624,597.21205 C268.05924,595.93784 269.42544,593.92394 270.37044,593.875347 C283.42764,593.222044 296.22024,594.085916 307.38204,602.049729 C307.84644,602.384479 308.06784,603.04858 309.16404,604.722331 C305.83224,605.66719 302.94324,606.703836 299.96244,607.303147 C295.24824,608.258804 291.39264,609.754381 288.31464,614.160125 C283.78944,620.628361 281.14884,620.126236 275.90004,614.754037 C274.34484,613.161274 271.08324,613.11808 268.55064,612.632153 C266.75244,612.286604 264.71664,612.794129 263.05884,612.184019 C260.94204,611.406535 259.10064,609.89476 257.13504,608.696139 C259.19784,606.81182 261.09324,604.689936 263.39364,603.167363 C264.35484,602.535657 266.16384,603.178161 268.32924,603.280746" id="Fill-36" fill="#FFFFFF" mask="url(#mask-24)"></path>
                    <mask id="mask-26" fill="white">
                        <use xlink:href="#path-25"></use>
                    </mask>
                    <g id="Clip-40"></g>
                    <path d="M365.70366,60.5557587 C372.86946,60.5557587 379.99746,60.399182 387.12006,60.6637426 C388.95066,60.7285329 390.73806,62.1215254 392.54166,62.9044088 C391.39146,64.6699457 390.63546,67.2129669 389.00466,68.044443 C385.68366,69.7397905 381.94146,71.246166 378.28026,71.4999282 C370.11546,72.072243 361.89666,71.8778719 353.69406,71.8670735 C351.48546,71.8670735 349.14186,71.8022832 347.10606,71.0679926 C343.75266,69.8585728 343.21266,67.5585154 346.02606,65.0532886 C349.55766,61.9055576 354.63366,59.7458793 352.25766,53.2668445 C351.96606,52.478562 354.52026,49.4874076 355.60566,49.5629963 C359.75286,49.8653513 364.65606,49.8761497 367.76646,52.1060175 C371.63826,54.881204 368.99766,58.5148627 365.70366,60.5557587" id="Fill-39" fill="#FFFFFF" mask="url(#mask-26)"></path>
                    <mask id="mask-28" fill="white">
                        <use xlink:href="#path-27"></use>
                    </mask>
                    <g id="Clip-43"></g>
                    <path d="M315.09432,58.5839724 C318.69612,56.4782861 322.29252,54.3725998 326.46672,51.9267642 C324.51732,62.1690383 320.37012,66.4613989 311.58432,68.3295206 C305.05032,69.7171138 298.53792,71.2018926 291.87432,72.6704739 C290.44872,67.762605 291.66912,64.836241 295.90272,62.8655346 C300.35772,60.8030418 304.49412,58.0548512 308.98152,56.1003424 C310.44492,55.4632373 312.58332,56.3864998 314.41392,56.5916692 C314.64072,57.2557703 314.86752,57.9198713 315.09432,58.5839724" id="Fill-42" fill="#FFFFFF" mask="url(#mask-28)"></path>
                    <mask id="mask-30" fill="white">
                        <use xlink:href="#path-29"></use>
                    </mask>
                    <g id="Clip-46"></g>
                    <path d="M291.23712,166.420487 C285.61572,169.309057 280.29672,172.197627 274.77792,174.65966 C274.15692,174.940418 272.45592,172.813135 271.60272,172.095042 C277.85592,165.232664 283.80132,158.715835 289.74132,152.204405 C289.98972,152.328587 290.23272,152.458167 290.48112,152.587748 C290.14632,153.640591 289.81152,154.693434 289.29852,156.313193 C290.94552,156.313193 292.58712,155.962245 293.98032,156.404979 C295.62732,156.923302 298.49472,158.456674 298.37052,158.980396 C297.17712,164.12043 301.00032,166.658052 303.33312,170.054146 C303.84072,170.793836 303.18732,173.417845 302.54472,173.639212 C301.04892,174.157535 298.68372,174.395099 297.65772,173.547426 C295.19532,171.517328 293.30532,168.801533 291.23712,166.420487" id="Fill-45" fill="#FFFFFF" mask="url(#mask-30)"></path>
                    <mask id="mask-32" fill="white">
                        <use xlink:href="#path-31"></use>
                    </mask>
                    <g id="Clip-49"></g>
                    <path d="M660.45186,59.0477633 C666.89946,57.2768271 680.62086,68.890497 679.96746,77.610198 C674.52966,76.5573548 669.08106,75.9256489 663.95106,74.2788942 C662.34186,73.7605715 661.01346,70.6344372 660.59226,68.4963557 C660.03066,65.5591933 660.45186,62.4222606 660.45186,59.0477633" id="Fill-48" fill="#FFFFFF" mask="url(#mask-32)"></path>
                    <mask id="mask-34" fill="white">
                        <use xlink:href="#path-33"></use>
                    </mask>
                    <g id="Clip-52"></g>
                    <path d="M315.97506,79.7801347 C318.02166,78.5923116 320.32206,77.6960452 322.06626,76.173472 C327.37986,71.5301637 332.98506,71.1144257 340.49646,74.9370562 C338.48766,77.1237304 337.08366,79.4993765 335.00466,80.7303931 C330.44166,83.4461885 325.60326,85.7786411 320.70546,87.8573314 C318.87486,88.6348156 316.55826,88.2784686 314.46846,88.4404445 C314.77626,86.2159759 315.05166,83.9861081 315.41886,81.7778371 C315.54846,81.0219497 315.91566,80.3092559 316.17486,79.5749653 C316.17486,79.5695661 315.97506,79.7801347 315.97506,79.7801347" id="Fill-51" fill="#FFFFFF" mask="url(#mask-34)"></path>
                    <mask id="mask-36" fill="white">
                        <use xlink:href="#path-35"></use>
                    </mask>
                    <g id="Clip-55"></g>
                    <path d="M382.00356,38.7667647 C377.39196,41.6067416 377.40816,48.6472927 370.64196,47.4432721 C366.19236,46.6549895 361.78056,45.6777351 356.88816,44.6896823 C357.50916,41.6607336 356.64516,37.4115666 362.91456,38.3024339 C364.35636,38.5076033 366.15996,36.1373564 367.80696,34.9711301 C370.79856,32.8600446 373.68216,30.0416645 376.22016,35.7324167 C376.77096,36.9796309 379.23336,37.3845706 382.00356,38.7667647" id="Fill-54" fill="#FFFFFF" mask="url(#mask-36)"></path>
                    <mask id="mask-38" fill="white">
                        <use xlink:href="#path-37"></use>
                    </mask>
                    <g id="Clip-58"></g>
                    <path d="M222.84612,603.639252 C232.58232,606.646604 240.93612,609.222021 249.93792,612.002606 C246.02292,617.045455 241.80012,622.860389 236.94012,619.453496 C231.98832,615.981814 223.94232,614.200079 222.84612,603.639252" id="Fill-57" fill="#FFFFFF" mask="url(#mask-38)"></path>
                    <mask id="mask-40" fill="white">
                        <use xlink:href="#path-39"></use>
                    </mask>
                    <g id="Clip-61"></g>
                    <path d="M335.93508,64.8319216 C332.54928,66.2735069 329.16888,67.7096929 325.45368,69.2970564 C324.02268,57.5700035 331.29648,52.5865459 348.94908,52.7863161 C346.63248,55.7990673 344.81808,58.163915 343.00368,60.5287627 C340.64388,61.9595495 338.28948,63.3957356 335.93508,64.8319216" id="Fill-60" fill="#FFFFFF" mask="url(#mask-40)"></path>
                    <mask id="mask-42" fill="white">
                        <use xlink:href="#path-41"></use>
                    </mask>
                    <g id="Clip-64"></g>
                    <path d="M360.45108,118.969116 C360.21348,121.711908 359.88948,124.4493 359.73828,127.197491 C359.30628,135.042522 353.22588,139.35108 343.07388,138.730173 C339.72588,131.937984 347.05368,130.312827 349.60248,126.86814 C352.13508,123.461247 356.85468,121.668714 360.61308,119.163488 C360.60768,119.158088 360.45108,118.969116 360.45108,118.969116" id="Fill-63" fill="#FFFFFF" mask="url(#mask-42)"></path>
                    <mask id="mask-44" fill="white">
                        <use xlink:href="#path-43"></use>
                    </mask>
                    <g id="Clip-67"></g>
                    <path d="M773.8308,41.9436514 C783.5076,40.8854091 788.2056,45.0157937 786.51,52.5098773 C785.9754,54.8639266 782.703,56.5970684 780.6834,58.6163676 C779.3766,57.082996 777.519,55.7547939 776.8926,53.9838577 C775.5696,50.2530135 774.8892,46.2900039 773.8308,41.9436514" id="Fill-66" fill="#FFFFFF" mask="url(#mask-44)"></path>
                    <mask id="mask-46" fill="white">
                        <use xlink:href="#path-45"></use>
                    </mask>
                    <g id="Clip-70"></g>
                    <path d="M314.77788,606.238425 C320.06988,606.238425 323.32068,606.330211 326.56068,606.211429 C331.35588,606.044054 332.29008,609.499539 332.61948,613.009016 C332.69508,613.878287 330.30288,615.967776 329.47128,615.768005 C325.56168,614.801549 321.67908,613.494944 318.06108,611.745605 C316.78128,611.119298 316.28448,608.878632 314.77788,606.238425" id="Fill-69" fill="#FFFFFF" mask="url(#mask-46)"></path>
                    <mask id="mask-48" fill="white">
                        <use xlink:href="#path-47"></use>
                    </mask>
                    <g id="Clip-73"></g>
                    <mask id="mask-50" fill="white">
                        <use xlink:href="#path-49"></use>
                    </mask>
                    <g id="Clip-76"></g>
                    <path d="M343.74996,46.2667874 C341.92476,47.1576547 340.18056,48.4210664 338.25276,48.8206069 C336.37896,49.209349 334.31076,48.7180222 332.32896,48.6100383 C333.34956,46.8606989 334.17036,44.9385852 335.46636,43.4268105 C336.34116,42.4063625 337.82076,41.7638582 339.15456,41.315725 C340.63416,40.8243982 342.24876,40.7488094 343.80396,40.489648 C344.00376,42.1526003 344.20896,43.8101533 344.41416,45.4731056 C344.21436,45.759263 343.99296,46.0238236 343.74996,46.2667874" id="Fill-75" fill="#FFFFFF" mask="url(#mask-50)"></path>
                    <mask id="mask-52" fill="white">
                        <use xlink:href="#path-51"></use>
                    </mask>
                    <g id="Clip-79"></g>
                    <path d="M292.82958,193.134088 C291.03138,185.073089 299.90358,187.022198 301.58298,181.720188 C303.76458,189.748792 300.45978,193.760394 292.82958,193.134088" id="Fill-78" fill="#FFFFFF" mask="url(#mask-52)"></path>
                    <mask id="mask-54" fill="white">
                        <use xlink:href="#path-53"></use>
                    </mask>
                    <g id="Clip-82"></g>
                    <path d="M335.93508,64.8319216 C338.28948,63.3957356 340.64388,61.9595495 343.00368,60.5287627 C343.60848,61.3224444 344.89368,62.5642594 344.71008,62.8450176 C342.71748,65.9171599 340.49268,68.8381248 338.33268,71.7914848 C332.83548,70.830428 334.23408,67.877068 335.93508,64.8319216" id="Fill-81" fill="#FFFFFF" mask="url(#mask-54)"></path>
                    <mask id="mask-56" fill="white">
                        <use xlink:href="#path-55"></use>
                    </mask>
                    <g id="Clip-85"></g>
                    <path d="M790.76358,231.334477 C792.70218,226.356418 794.08998,222.792949 795.73698,218.576177 C799.34958,224.677269 798.44778,227.155499 790.76358,231.334477" id="Fill-84" fill="#FFFFFF" mask="url(#mask-56)"></path>
                    <mask id="mask-58" fill="white">
                        <use xlink:href="#path-57"></use>
                    </mask>
                    <g id="Clip-88"></g>
                    <path d="M343.74996,46.2667874 C343.99296,46.0238236 344.21436,45.759263 344.41416,45.4731056 C346.13676,44.6794238 347.86476,43.8911413 349.58736,43.0974595 C350.08956,43.6697743 350.59716,44.242089 351.09936,44.8090045 C349.09056,47.0550699 347.08176,49.3011353 345.07836,51.5418015 C344.50056,51.2124506 343.92276,50.8830996 343.35036,50.5537487 C343.47996,49.1229619 343.61496,47.6975742 343.74996,46.2667874" id="Fill-87" fill="#FFFFFF" mask="url(#mask-58)"></path>
                    <mask id="mask-60" fill="white">
                        <use xlink:href="#path-59"></use>
                    </mask>
                    <g id="Clip-91"></g>
                    <path d="M277.76358,182.354054 L289.20078,177.81333 C289.51398,178.504427 289.81638,179.200923 290.12958,179.886621 C286.44678,181.614364 282.76398,183.342106 279.08118,185.06445 C278.63838,184.157385 278.20098,183.255719 277.76358,182.354054" id="Fill-90" fill="#FFFFFF" mask="url(#mask-60)"></path>
                </g>
            </g>
        </g>
    </g>
</svg>