<?xml version="1.0" encoding="utf-8"?>
<!-- Generator: Adobe Illustrator 22.0.0, SVG Export Plug-In . SVG Version: 6.00 Build 0)  -->
<svg version="1.1" id="Layer_1" xmlns="http://www.w3.org/2000/svg" xmlns:xlink="http://www.w3.org/1999/xlink" x="0px" y="0px"
	 viewBox="0 0 56 733" style="enable-background:new 0 0 56 733;" xml:space="preserve">
<style type="text/css">
	.st0{fill:none;stroke:#FFFFFF;}
	.st1{fill:none;stroke:#FFFFFF;stroke-width:1.5;}
	.st2{fill:#FFFFFF;}
</style>
<title>Designonaut-Logo-White</title>
<desc>Created with Sketch.</desc>
<g>
	<path id="Stroke-1" class="st0" d="M11.2,721.7h33.4v-9.8c0-5-2.5-8.5-7.5-10.5c-2.7-1.1-6-1.6-9.8-1.6c-5.2,0-9.2,0.8-12,2.4
		c-2.8,1.6-4.2,4.8-4.2,9.7L11.2,721.7L11.2,721.7z M3.5,702.3c1.2-3.5,3.3-6.4,6.5-8.6c2.5-1.8,5.3-3,8.3-3.6s5.8-1,8.5-1
		c6.8,0,12.6,1.4,17.3,4.1c6.4,3.7,9.5,9.3,9.5,17V732H2.3v-21.8C2.4,707,2.8,704.4,3.5,702.3z"/>
	<polygon id="Stroke-3" class="st0" points="11.4,630.4 11.4,658.3 22.3,658.3 22.3,632.7 31.1,632.7 31.1,658.3 44.2,658.3 
		44.2,629.1 53.5,629.1 53.5,669.1 2.3,669.1 2.3,630.4 	"/>
	<path id="Stroke-5" class="st0" d="M37.8,600.2c2.3-0.3,4.1-1,5.2-2c2.1-1.8,3.2-4.9,3.2-9.2c0-2.6-0.3-4.7-0.8-6.3
		c-1.1-3.1-3-4.6-5.9-4.6c-1.7,0-3,0.8-3.9,2.3s-1.7,3.9-2.4,7.2l-1.2,5.6c-1.2,5.5-2.5,9.3-3.9,11.3c-2.4,3.5-6.1,5.2-11.1,5.2
		c-4.6,0-8.4-1.7-11.4-5.1c-3-3.4-4.6-8.4-4.6-15c0-5.5,1.4-10.2,4.3-14.1c2.9-3.9,7-5.9,12.5-6.1v10.4c-3.1,0.2-5.3,1.6-6.6,4.2
		c-0.9,1.7-1.3,3.9-1.3,6.4c0,2.9,0.6,5.1,1.7,6.8s2.7,2.6,4.7,2.6c1.8,0,3.2-0.8,4.1-2.5c0.6-1.1,1.3-3.4,2.1-6.9l2.1-9.1
		c0.9-4,2.2-7,3.7-8.9c2.4-3.1,5.9-4.6,10.5-4.6c4.7,0,8.6,1.8,11.7,5.5c3.1,3.7,4.6,8.8,4.6,15.5c0,6.8-1.5,12.2-4.6,16.1
		c-3.1,3.9-7.2,5.9-12.6,5.9L37.8,600.2L37.8,600.2z"/>
	<polygon id="Stroke-7" class="st0" points="2.3,549 53.5,549 53.5,537.6 2.3,537.6 	"/>
	<path id="Stroke-9" class="st0" d="M18.3,481c-3.5,0.8-6,2.8-7.3,5.9c-0.8,1.7-1.2,3.7-1.2,5.8c0,4.1,1.6,7.4,4.7,10.1
		c3.1,2.6,7.8,3.9,14.1,3.9s10.8-1.4,13.4-4.3c2.6-2.8,3.9-6.1,3.9-9.7s-1-6.5-3.1-8.7c-2.1-2.3-4.8-3.7-8.1-4.2v11.7h-8.6v-21.1
		h27.6v7l-6.4,1.1c2.4,2,4.1,3.9,5.1,5.5c1.7,2.8,2.6,6.2,2.6,10.3c0,6.7-2.4,12.2-7.1,16.5c-4.7,4.5-11.2,6.7-19.4,6.7
		c-8.3,0-15-2.3-20-6.8S1,500.2,1,492.8c0-6.5,1.7-11.6,5-15.5s7.4-6.2,12.4-6.7V481H18.3z"/>
	<polygon id="Stroke-10" class="st0" points="2.3,447.5 2.3,436.3 38,416 2.3,416 2.3,406 53.5,406 53.5,416.7 17.2,437.5 
		53.5,437.5 53.5,447.5 	"/>
	<path id="Stroke-11" class="st0" d="M41.2,351.7c-3.1-2.5-7.5-3.7-13.3-3.7c-5.7,0-10.1,1.2-13.3,3.7c-3.1,2.5-4.7,5.8-4.7,10
		s1.6,7.5,4.7,10s7.5,3.7,13.3,3.7s10.2-1.2,13.3-3.7s4.7-5.8,4.7-10S44.2,354.2,41.2,351.7z M49,345.1c4,3.8,5.9,9.4,5.9,16.6
		c0,7.3-2,12.8-5.9,16.6c-4.9,5.1-11.9,7.7-21.1,7.7c-9.3,0-16.4-2.6-21-7.7c-4-3.8-5.9-9.4-5.9-16.6s2-12.8,5.9-16.6
		c4.7-5.1,11.7-7.7,21-7.7C37.1,337.4,44.1,340,49,345.1z"/>
	<polygon id="Stroke-12" class="st0" points="2.3,317.4 2.3,306.2 38,285.9 2.3,285.9 2.3,275.9 53.5,275.9 53.5,286.6 17.2,307.4 
		53.5,307.4 53.5,317.4 	"/>
	<path id="Stroke-13" class="st0" d="M34.2,238.3v-13.1l-20.1,6.5L34.2,238.3z M2.3,237.6v-12.1l51.2-18.2v11.6L43,222.3v18.9
		l10.5,3.5v11.2L2.3,237.6z"/>
	<path id="Stroke-14" class="st0" d="M2.3,188.7v-11h30.6c3.4,0,5.9-0.4,7.5-1.3c2.8-1.3,4.2-4.1,4.2-8.5s-1.4-7.2-4.2-8.5
		c-1.6-0.8-4.1-1.3-7.5-1.3H2.3v-11H33c5.3,0,9.4,0.8,12.4,2.6c5.4,3.2,8.1,9.2,8.1,18.2c0,8.9-2.7,15-8.1,18.2
		c-2.9,1.7-7.1,2.6-12.4,2.6H2.3z"/>
	<polygon id="Stroke-15" class="st0" points="2.3,87.2 11.4,87.2 11.4,102.5 53.5,102.5 53.5,113.3 11.4,113.3 11.4,128.7 
		2.3,128.7 	"/>
</g>
<path id="Stroke-16" class="st1" d="M27.2,60V0"/>
<path id="Fill-17" class="st2" d="M54.2,29.3c0,3.6-2.9,6.4-6.4,6.4s-6.4-2.9-6.4-6.4s2.9-6.4,6.4-6.4S54.2,25.8,54.2,29.3"/>
</svg>
