<?xml version="1.0" encoding="utf-8"?>
<!-- Generator: Adobe Illustrator 22.0.0, SVG Export Plug-In . SVG Version: 6.00 Build 0)  -->
<svg version="1.1" id="Layer_1" xmlns="http://www.w3.org/2000/svg" xmlns:xlink="http://www.w3.org/1999/xlink" x="0px" y="0px"
	 viewBox="0 0 315 24" style="enable-background:new 0 0 315 24;" xml:space="preserve">
<style type="text/css">
	.st0{fill:none;stroke:#333333;stroke-width:0.75;}
	.st1{fill:none;stroke:#333333;stroke-width:2;}
	.st2{fill:#333333;}
</style>
<title>Designonaut-LogoTop</title>
<desc>Created with Sketch.</desc>
<g>
	<g>
		<path id="Stroke-1" class="st0" d="M4.9,4.8V19h4.2c2.1,0,3.6-1.1,4.5-3.2c0.5-1.2,0.7-2.5,0.7-4.2c0-2.2-0.3-3.9-1-5.1
			c-0.8-1.1-2.1-1.7-4.2-1.7H4.9z M13.2,1.5C14.7,2,16,2.9,16.9,4.3c0.8,1.1,1.3,2.3,1.5,3.5c0.3,1.3,0.4,2.5,0.4,3.6
			c0,2.9-0.6,5.3-1.7,7.4c-1.6,2.7-4,4.1-7.3,4.1H0.5V1.1h9.4C11.2,1.1,12.3,1.2,13.2,1.5z"/>
		<polygon id="Stroke-3" class="st0" points="44.1,4.9 32.1,4.9 32.1,9.5 43.1,9.5 43.1,13.3 32.1,13.3 32.1,18.9 44.7,18.9 
			44.7,22.9 27.5,22.9 27.5,1.1 44.1,1.1 		"/>
		<path id="Stroke-5" class="st0" d="M57.1,16.4c0.1,1,0.4,1.5,0.8,2c0.8,0.9,2.1,1.3,4,1.3c1.1,0,2-0.1,2.7-0.4
			c1.3-0.5,2-1.3,2-2.5c0-0.7-0.3-1.3-1-1.7s-1.7-0.7-3.1-1l-2.4-0.5c-2.4-0.5-4-1.1-4.9-1.7C53.7,11,53,9.4,53,7.3
			c0-2,0.7-3.6,2.2-4.9s3.6-1.9,6.4-1.9c2.4,0,4.4,0.6,6.1,1.8c1.7,1.2,2.5,3,2.6,5.3h-4.5c-0.1-1.3-0.7-2.2-1.8-2.8
			c-0.7-0.4-1.7-0.5-2.8-0.5C60,4.3,59,4.5,58.3,5s-1.1,1.1-1.1,2c0,0.8,0.4,1.4,1.1,1.7c0.5,0.3,1.4,0.6,2.9,0.9l3.9,0.9
			c1.7,0.4,3,0.9,3.8,1.6c1.3,1,2,2.5,2,4.5s-0.8,3.6-2.3,5c-1.6,1.3-3.8,2-6.6,2c-2.9,0-5.2-0.6-6.9-1.9s-2.5-3.1-2.5-5.3H57.1
			L57.1,16.4z"/>
		<polygon id="Stroke-7" class="st0" points="79,1.1 79,22.9 83.9,22.9 83.9,1.1 		"/>
		<path id="Stroke-9" class="st0" d="M108.2,7.8c-0.3-1.5-1.2-2.5-2.5-3.1c-0.7-0.3-1.6-0.5-2.5-0.5c-1.8,0-3.2,0.7-4.3,2
			c-1.1,1.3-1.7,3.3-1.7,6s0.6,4.6,1.8,5.7c1.2,1.1,2.6,1.7,4.2,1.7c1.5,0,2.8-0.4,3.7-1.3c1-0.9,1.6-2,1.8-3.5h-5v-3.7h9.1v11.7h-3
			l-0.5-2.7c-0.9,1-1.7,1.8-2.4,2.2c-1.2,0.7-2.7,1.1-4.4,1.1c-2.9,0-5.3-1-7.1-3c-1.9-2-2.9-4.8-2.9-8.3s1-6.4,2.9-8.5
			s4.5-3.2,7.7-3.2c2.8,0,5,0.7,6.7,2.1s2.6,3.2,2.9,5.3C112.7,7.8,108.2,7.8,108.2,7.8z"/>
		<polygon id="Stroke-10" class="st0" points="122.5,1.1 127.3,1.1 136.1,16.3 136.1,1.1 140.3,1.1 140.3,22.9 135.7,22.9 
			126.8,7.4 126.8,22.9 122.5,22.9 		"/>
		<path id="Stroke-11" class="st0" d="M163.6,17.6c1.1-1.3,1.6-3.2,1.6-5.7c0-2.4-0.5-4.3-1.6-5.7c-1.1-1.3-2.5-2-4.3-2
			s-3.2,0.7-4.3,2s-1.6,3.2-1.6,5.7s0.5,4.3,1.6,5.7c1.1,1.3,2.5,2,4.3,2S162.6,18.9,163.6,17.6z M166.5,20.9
			c-1.6,1.7-4,2.5-7.1,2.5s-5.5-0.8-7.1-2.5c-2.2-2.1-3.3-5.1-3.3-9c0-4,1.1-7,3.3-9c1.6-1.7,4-2.5,7.1-2.5s5.5,0.8,7.1,2.5
			c2.2,2,3.3,5,3.3,9S168.7,18.9,166.5,20.9z"/>
		<polygon id="Stroke-12" class="st0" points="178.4,1.1 183.2,1.1 191.9,16.3 191.9,1.1 196.1,1.1 196.1,22.9 191.6,22.9 
			182.6,7.4 182.6,22.9 178.4,22.9 		"/>
		<path id="Stroke-13" class="st0" d="M212.3,14.6h5.6L215.1,6L212.3,14.6z M212.6,1.1h5.2l7.8,21.8h-5l-1.5-4.5H211l-1.5,4.5h-4.8
			L212.6,1.1z"/>
		<path id="Stroke-14" class="st0" d="M233.5,1.1h4.7v13c0,1.5,0.2,2.5,0.5,3.2c0.6,1.2,1.8,1.8,3.7,1.8s3.1-0.6,3.6-1.8
			c0.4-0.7,0.5-1.7,0.5-3.2v-13h4.7v13.1c0,2.3-0.4,4-1.1,5.3c-1.4,2.3-4,3.5-7.8,3.5s-6.4-1.2-7.8-3.5c-0.7-1.3-1.1-3-1.1-5.3V1.1
			H233.5z"/>
		<polygon id="Stroke-15" class="st0" points="277.1,1.1 277.1,4.9 270.5,4.9 270.5,22.9 265.9,22.9 265.9,4.9 259.3,4.9 259.3,1.1 
					"/>
	</g>
	<path id="Stroke-16" class="st1" d="M288.7,12h25.8"/>
	<path id="Fill-17" class="st2" d="M301.9,23.5c-1.5,0-2.8-1.2-2.8-2.7s1.2-2.7,2.8-2.7s2.8,1.2,2.8,2.7S303.5,23.5,301.9,23.5"/>
</g>
</svg>
